<?xml version="1.0" standalone="no"?>
<!DOCTYPE svg PUBLIC "-//W3C//DTD SVG 20010904//EN"
 "http://www.w3.org/TR/2001/REC-SVG-20010904/DTD/svg10.dtd">
<svg version="1.0" xmlns="http://www.w3.org/2000/svg"
 width="528.000000pt" height="560.000000pt" viewBox="0 0 528.000000 560.000000"
 preserveAspectRatio="xMidYMid meet">

<g transform="translate(0.000000,560.000000) scale(0.100000,-0.100000)"
fill="#000000" stroke="none">
<path d="M2449 5405 c-156 -25 -309 -70 -464 -138 -50 -21 -104 -37 -145 -41
-275 -27 -408 -317 -244 -532 l35 -45 -27 -48 c-23 -40 -40 -55 -108 -91 -189
-102 -443 -294 -582 -441 -351 -370 -570 -816 -650 -1331 -25 -158 -25 -518 0
-676 90 -574 350 -1063 764 -1435 385 -346 857 -559 1362 -612 951 -102 1874
378 2348 1220 133 237 232 530 278 827 25 158 25 518 0 676 -95 606 -382 1120
-840 1506 -86 72 -247 184 -337 235 -50 28 -60 39 -84 93 -27 61 -27 62 -11
113 30 95 19 180 -32 258 -32 47 -77 75 -137 84 -39 5 -51 11 -64 36 -45 83
-115 125 -190 113 -37 -6 -42 -3 -95 48 -164 156 -472 228 -777 181z m644
-781 c16 -14 65 -43 108 -65 70 -35 81 -44 104 -89 31 -61 90 -122 144 -150
57 -28 78 -55 97 -119 9 -31 57 -135 107 -231 l90 -175 5 -90 c5 -99 12 -117
40 -92 16 15 20 15 57 -8 22 -13 50 -37 63 -54 45 -62 52 -101 52 -300 0 -180
-1 -189 -25 -238 -29 -58 -75 -97 -138 -119 l-43 -14 -12 -81 c-51 -321 -270
-623 -569 -784 l-53 -28 0 -111 0 -111 41 -30 c23 -16 55 -48 72 -70 17 -22
35 -42 39 -45 4 -3 19 -33 34 -65 34 -79 43 -181 20 -258 -22 -76 -90 -172
-159 -226 l-57 -44 -59 46 c-72 57 -108 60 -220 20 -67 -24 -90 -27 -196 -27
-101 0 -130 3 -180 23 -33 12 -83 25 -112 28 -50 5 -54 3 -113 -42 -60 -46
-61 -47 -87 -30 -115 76 -203 231 -203 359 0 75 36 185 70 216 3 3 20 23 37
45 17 22 49 54 72 70 l41 30 0 111 0 110 -37 18 c-122 58 -282 195 -376 321
-104 139 -217 413 -217 526 0 23 -5 30 -27 35 -45 10 -106 50 -131 83 -45 62
-52 101 -52 301 0 185 0 188 27 240 17 31 45 65 70 83 39 28 45 29 69 17 18
-10 30 -11 42 -3 14 8 17 30 19 129 5 211 33 332 113 479 78 143 215 315 250
315 10 0 56 -9 102 -20 165 -40 455 -35 680 10 60 13 156 43 233 75 71 29 132
54 134 54 2 1 17 -11 34 -25z m835 -4014 c18 -13 32 -27 32 -32 0 -4 5 -8 11
-8 6 0 24 -11 41 -25 24 -21 26 -25 11 -26 -26 -2 -78 -6 -153 -13 -36 -4 -92
-9 -124 -12 -32 -2 -62 -7 -67 -9 -4 -3 -4 7 0 22 4 14 16 31 27 37 10 6 23
17 27 24 4 6 14 12 21 12 8 0 16 7 20 15 3 8 10 15 16 15 6 0 17 6 24 13 20
20 79 13 114 -13z"/>
<path d="M2037 3950 c-51 -13 -94 -36 -143 -76 -79 -63 -144 -191 -129 -251 5
-23 8 -21 49 34 101 138 281 229 464 235 40 2 73 8 73 13 4 31 -234 65 -314
45z"/>
<path d="M3023 3945 c-126 -27 -133 -55 -15 -55 42 0 101 -7 130 -14 132 -36
270 -129 333 -226 31 -48 34 -50 42 -28 26 71 -52 206 -159 274 -95 61 -203
77 -331 49z"/>
<path d="M1978 3466 c-20 -8 -47 -22 -61 -31 -24 -15 -77 -83 -77 -98 0 -14
28 -6 75 20 37 20 66 28 125 31 85 5 133 -6 192 -44 47 -30 58 -15 25 34 -51
77 -191 121 -279 88z"/>
<path d="M3138 3466 c-20 -8 -47 -22 -61 -31 -24 -15 -77 -83 -77 -98 0 -14
28 -6 75 20 37 20 66 28 125 31 85 5 133 -6 192 -44 47 -30 58 -15 25 34 -51
77 -191 121 -279 88z"/>
<path d="M2271 2646 c-31 -37 33 -189 109 -260 119 -111 289 -136 434 -64 55
28 128 99 159 156 34 63 51 136 37 162 -15 27 -50 26 -50 -1 0 -11 -13 -34
-29 -50 l-29 -29 -252 0 -252 0 -29 29 c-16 16 -29 39 -29 50 0 16 -6 21 -29
21 -16 0 -34 -6 -40 -14z"/>
</g>
</svg>
